<svg xmlns="http://www.w3.org/2000/svg" xmlns:xlink="http://www.w3.org/1999/xlink" width="600" zoomAndPan="magnify" viewBox="0 0 450 60" height="80" preserveAspectRatio="xMidYMid meet" version="1.0"><defs><g/></defs><g fill="#ff00ff" fill-opacity="1"><g transform="translate(3.713972, 50.355991)"><g><path d="M 36.289062 -8.46875 L 44.757812 -8.46875 L 44.757812 -12.703125 C 44.757812 -15.96875 43.488281 -18.929688 41.492188 -21.167969 C 43.488281 -23.40625 44.757812 -26.371094 44.757812 -29.636719 C 44.757812 -36.652344 39.074219 -42.339844 32.054688 -42.339844 L 10.828125 -42.339844 L 10.828125 -33.871094 L 32.054688 -33.871094 C 34.414062 -33.871094 36.289062 -31.996094 36.289062 -29.636719 C 36.289062 -27.277344 34.414062 -25.402344 32.054688 -25.402344 L 15.0625 -25.402344 L 15.0625 -16.9375 L 32.054688 -16.9375 C 34.414062 -16.9375 36.289062 -15.0625 36.289062 -12.703125 Z M 15.0625 0 L 36.289062 0 L 36.289062 -8.46875 L 15.0625 -8.46875 C 12.761719 -8.46875 10.828125 -10.34375 10.828125 -12.703125 L 10.828125 -33.871094 L 2.417969 -33.871094 L 2.417969 -12.703125 C 2.417969 -5.746094 8.105469 0 15.0625 0 Z M 15.0625 0 "/></g></g></g><g fill="#ff00ff" fill-opacity="1"><g transform="translate(50.885645, 50.355991)"><g><path d="M 36.289062 -8.46875 L 44.757812 -8.46875 L 44.757812 -29.636719 C 44.757812 -36.652344 39.011719 -42.339844 32.054688 -42.339844 L 10.886719 -42.339844 L 10.886719 -33.871094 L 32.054688 -33.871094 C 34.355469 -33.871094 36.289062 -31.996094 36.289062 -29.636719 Z M 15.121094 0 L 36.289062 0 L 36.289062 -8.46875 L 15.121094 -8.46875 C 12.761719 -8.46875 10.886719 -10.34375 10.886719 -12.703125 L 10.886719 -33.871094 L 2.417969 -33.871094 L 2.417969 -12.703125 C 2.417969 -5.683594 8.105469 0 15.121094 0 Z M 15.121094 0 "/></g></g></g><g fill="#ff00ff" fill-opacity="1"><g transform="translate(98.057317, 50.355991)"><g><path d="M 36.289062 -8.46875 L 44.757812 -8.46875 L 44.757812 -12.703125 C 44.757812 -15.96875 43.488281 -18.929688 41.492188 -21.167969 C 43.488281 -23.40625 44.757812 -26.371094 44.757812 -29.636719 C 44.757812 -36.652344 39.074219 -42.339844 32.054688 -42.339844 L 10.828125 -42.339844 L 10.828125 -33.871094 L 32.054688 -33.871094 C 34.414062 -33.871094 36.289062 -31.996094 36.289062 -29.636719 C 36.289062 -27.277344 34.414062 -25.402344 32.054688 -25.402344 L 15.0625 -25.402344 L 15.0625 -16.9375 L 32.054688 -16.9375 C 34.414062 -16.9375 36.289062 -15.0625 36.289062 -12.703125 Z M 15.0625 0 L 36.289062 0 L 36.289062 -8.46875 L 15.0625 -8.46875 C 12.761719 -8.46875 10.828125 -10.34375 10.828125 -12.703125 L 10.828125 -33.871094 L 2.417969 -33.871094 L 2.417969 -12.703125 C 2.417969 -5.746094 8.105469 0 15.0625 0 Z M 15.0625 0 "/></g></g></g><g fill="#ff00ff" fill-opacity="1"><g transform="translate(145.22899, 50.355991)"><g><path d="M 36.289062 -8.46875 L 44.757812 -8.46875 L 44.757812 -12.703125 C 44.757812 -15.96875 43.488281 -18.929688 41.492188 -21.167969 C 43.488281 -23.40625 44.757812 -26.371094 44.757812 -29.636719 C 44.757812 -36.652344 39.074219 -42.339844 32.054688 -42.339844 L 10.828125 -42.339844 L 10.828125 -33.871094 L 32.054688 -33.871094 C 34.414062 -33.871094 36.289062 -31.996094 36.289062 -29.636719 C 36.289062 -27.277344 34.414062 -25.402344 32.054688 -25.402344 L 15.0625 -25.402344 L 15.0625 -16.9375 L 32.054688 -16.9375 C 34.414062 -16.9375 36.289062 -15.0625 36.289062 -12.703125 Z M 15.0625 0 L 36.289062 0 L 36.289062 -8.46875 L 15.0625 -8.46875 C 12.761719 -8.46875 10.828125 -10.34375 10.828125 -12.703125 L 10.828125 -33.871094 L 2.417969 -33.871094 L 2.417969 -12.703125 C 2.417969 -5.746094 8.105469 0 15.0625 0 Z M 15.0625 0 "/></g></g></g><g fill="#ff00ff" fill-opacity="1"><g transform="translate(192.400663, 50.355991)"><g><path d="M 15.121094 -12.703125 L 32.054688 -12.703125 L 32.054688 -21.167969 L 15.121094 -21.167969 C 12.761719 -21.167969 10.886719 -23.042969 10.886719 -25.402344 L 10.886719 -42.339844 L 2.417969 -42.339844 L 2.417969 -25.402344 C 2.417969 -18.386719 8.105469 -12.703125 15.121094 -12.703125 Z M 6.652344 0 L 32.054688 0 C 39.074219 0 44.757812 -5.683594 44.757812 -12.703125 L 44.757812 -42.339844 L 36.289062 -42.339844 L 36.289062 -12.703125 C 36.289062 -10.34375 34.414062 -8.46875 32.054688 -8.46875 L 6.652344 -8.46875 Z M 6.652344 0 "/></g></g></g><g fill="#ff00ff" fill-opacity="1"><g transform="translate(239.572336, 50.355991)"><g/></g></g><g fill="#00ffff" fill-opacity="1"><g transform="translate(-2.469993, 53.372112)"><g><path d="M 36.289062 -8.46875 L 44.757812 -8.46875 L 44.757812 -12.703125 C 44.757812 -15.96875 43.488281 -18.929688 41.492188 -21.167969 C 43.488281 -23.40625 44.757812 -26.371094 44.757812 -29.636719 C 44.757812 -36.652344 39.074219 -42.339844 32.054688 -42.339844 L 10.828125 -42.339844 L 10.828125 -33.871094 L 32.054688 -33.871094 C 34.414062 -33.871094 36.289062 -31.996094 36.289062 -29.636719 C 36.289062 -27.277344 34.414062 -25.402344 32.054688 -25.402344 L 15.0625 -25.402344 L 15.0625 -16.9375 L 32.054688 -16.9375 C 34.414062 -16.9375 36.289062 -15.0625 36.289062 -12.703125 Z M 15.0625 0 L 36.289062 0 L 36.289062 -8.46875 L 15.0625 -8.46875 C 12.761719 -8.46875 10.828125 -10.34375 10.828125 -12.703125 L 10.828125 -33.871094 L 2.417969 -33.871094 L 2.417969 -12.703125 C 2.417969 -5.746094 8.105469 0 15.0625 0 Z M 15.0625 0 "/></g></g></g><g fill="#00ffff" fill-opacity="1"><g transform="translate(44.70168, 53.372112)"><g><path d="M 36.289062 -8.46875 L 44.757812 -8.46875 L 44.757812 -29.636719 C 44.757812 -36.652344 39.011719 -42.339844 32.054688 -42.339844 L 10.886719 -42.339844 L 10.886719 -33.871094 L 32.054688 -33.871094 C 34.355469 -33.871094 36.289062 -31.996094 36.289062 -29.636719 Z M 15.121094 0 L 36.289062 0 L 36.289062 -8.46875 L 15.121094 -8.46875 C 12.761719 -8.46875 10.886719 -10.34375 10.886719 -12.703125 L 10.886719 -33.871094 L 2.417969 -33.871094 L 2.417969 -12.703125 C 2.417969 -5.683594 8.105469 0 15.121094 0 Z M 15.121094 0 "/></g></g></g><g fill="#00ffff" fill-opacity="1"><g transform="translate(91.873353, 53.372112)"><g><path d="M 36.289062 -8.46875 L 44.757812 -8.46875 L 44.757812 -12.703125 C 44.757812 -15.96875 43.488281 -18.929688 41.492188 -21.167969 C 43.488281 -23.40625 44.757812 -26.371094 44.757812 -29.636719 C 44.757812 -36.652344 39.074219 -42.339844 32.054688 -42.339844 L 10.828125 -42.339844 L 10.828125 -33.871094 L 32.054688 -33.871094 C 34.414062 -33.871094 36.289062 -31.996094 36.289062 -29.636719 C 36.289062 -27.277344 34.414062 -25.402344 32.054688 -25.402344 L 15.0625 -25.402344 L 15.0625 -16.9375 L 32.054688 -16.9375 C 34.414062 -16.9375 36.289062 -15.0625 36.289062 -12.703125 Z M 15.0625 0 L 36.289062 0 L 36.289062 -8.46875 L 15.0625 -8.46875 C 12.761719 -8.46875 10.828125 -10.34375 10.828125 -12.703125 L 10.828125 -33.871094 L 2.417969 -33.871094 L 2.417969 -12.703125 C 2.417969 -5.746094 8.105469 0 15.0625 0 Z M 15.0625 0 "/></g></g></g><g fill="#00ffff" fill-opacity="1"><g transform="translate(139.045025, 53.372112)"><g><path d="M 36.289062 -8.46875 L 44.757812 -8.46875 L 44.757812 -12.703125 C 44.757812 -15.96875 43.488281 -18.929688 41.492188 -21.167969 C 43.488281 -23.40625 44.757812 -26.371094 44.757812 -29.636719 C 44.757812 -36.652344 39.074219 -42.339844 32.054688 -42.339844 L 10.828125 -42.339844 L 10.828125 -33.871094 L 32.054688 -33.871094 C 34.414062 -33.871094 36.289062 -31.996094 36.289062 -29.636719 C 36.289062 -27.277344 34.414062 -25.402344 32.054688 -25.402344 L 15.0625 -25.402344 L 15.0625 -16.9375 L 32.054688 -16.9375 C 34.414062 -16.9375 36.289062 -15.0625 36.289062 -12.703125 Z M 15.0625 0 L 36.289062 0 L 36.289062 -8.46875 L 15.0625 -8.46875 C 12.761719 -8.46875 10.828125 -10.34375 10.828125 -12.703125 L 10.828125 -33.871094 L 2.417969 -33.871094 L 2.417969 -12.703125 C 2.417969 -5.746094 8.105469 0 15.0625 0 Z M 15.0625 0 "/></g></g></g><g fill="#00ffff" fill-opacity="1"><g transform="translate(186.216698, 53.372112)"><g><path d="M 15.121094 -12.703125 L 32.054688 -12.703125 L 32.054688 -21.167969 L 15.121094 -21.167969 C 12.761719 -21.167969 10.886719 -23.042969 10.886719 -25.402344 L 10.886719 -42.339844 L 2.417969 -42.339844 L 2.417969 -25.402344 C 2.417969 -18.386719 8.105469 -12.703125 15.121094 -12.703125 Z M 6.652344 0 L 32.054688 0 C 39.074219 0 44.757812 -5.683594 44.757812 -12.703125 L 44.757812 -42.339844 L 36.289062 -42.339844 L 36.289062 -12.703125 C 36.289062 -10.34375 34.414062 -8.46875 32.054688 -8.46875 L 6.652344 -8.46875 Z M 6.652344 0 "/></g></g></g><g fill="#00ffff" fill-opacity="1"><g transform="translate(233.388371, 53.372112)"><g/></g></g><g fill="#dc3c4d" fill-opacity="1"><g transform="translate(0.621989, 51.864051)"><g><path d="M 36.289062 -8.46875 L 44.757812 -8.46875 L 44.757812 -12.703125 C 44.757812 -15.96875 43.488281 -18.929688 41.492188 -21.167969 C 43.488281 -23.40625 44.757812 -26.371094 44.757812 -29.636719 C 44.757812 -36.652344 39.074219 -42.339844 32.054688 -42.339844 L 10.828125 -42.339844 L 10.828125 -33.871094 L 32.054688 -33.871094 C 34.414062 -33.871094 36.289062 -31.996094 36.289062 -29.636719 C 36.289062 -27.277344 34.414062 -25.402344 32.054688 -25.402344 L 15.0625 -25.402344 L 15.0625 -16.9375 L 32.054688 -16.9375 C 34.414062 -16.9375 36.289062 -15.0625 36.289062 -12.703125 Z M 15.0625 0 L 36.289062 0 L 36.289062 -8.46875 L 15.0625 -8.46875 C 12.761719 -8.46875 10.828125 -10.34375 10.828125 -12.703125 L 10.828125 -33.871094 L 2.417969 -33.871094 L 2.417969 -12.703125 C 2.417969 -5.746094 8.105469 0 15.0625 0 Z M 15.0625 0 "/></g></g></g><g fill="#dc3c4d" fill-opacity="1"><g transform="translate(47.793662, 51.864051)"><g><path d="M 36.289062 -8.46875 L 44.757812 -8.46875 L 44.757812 -29.636719 C 44.757812 -36.652344 39.011719 -42.339844 32.054688 -42.339844 L 10.886719 -42.339844 L 10.886719 -33.871094 L 32.054688 -33.871094 C 34.355469 -33.871094 36.289062 -31.996094 36.289062 -29.636719 Z M 15.121094 0 L 36.289062 0 L 36.289062 -8.46875 L 15.121094 -8.46875 C 12.761719 -8.46875 10.886719 -10.34375 10.886719 -12.703125 L 10.886719 -33.871094 L 2.417969 -33.871094 L 2.417969 -12.703125 C 2.417969 -5.683594 8.105469 0 15.121094 0 Z M 15.121094 0 "/></g></g></g><g fill="#dc3c4d" fill-opacity="1"><g transform="translate(94.965335, 51.864051)"><g><path d="M 36.289062 -8.46875 L 44.757812 -8.46875 L 44.757812 -12.703125 C 44.757812 -15.96875 43.488281 -18.929688 41.492188 -21.167969 C 43.488281 -23.40625 44.757812 -26.371094 44.757812 -29.636719 C 44.757812 -36.652344 39.074219 -42.339844 32.054688 -42.339844 L 10.828125 -42.339844 L 10.828125 -33.871094 L 32.054688 -33.871094 C 34.414062 -33.871094 36.289062 -31.996094 36.289062 -29.636719 C 36.289062 -27.277344 34.414062 -25.402344 32.054688 -25.402344 L 15.0625 -25.402344 L 15.0625 -16.9375 L 32.054688 -16.9375 C 34.414062 -16.9375 36.289062 -15.0625 36.289062 -12.703125 Z M 15.0625 0 L 36.289062 0 L 36.289062 -8.46875 L 15.0625 -8.46875 C 12.761719 -8.46875 10.828125 -10.34375 10.828125 -12.703125 L 10.828125 -33.871094 L 2.417969 -33.871094 L 2.417969 -12.703125 C 2.417969 -5.746094 8.105469 0 15.0625 0 Z M 15.0625 0 "/></g></g></g><g fill="#dc3c4d" fill-opacity="1"><g transform="translate(142.137008, 51.864051)"><g><path d="M 36.289062 -8.46875 L 44.757812 -8.46875 L 44.757812 -12.703125 C 44.757812 -15.96875 43.488281 -18.929688 41.492188 -21.167969 C 43.488281 -23.40625 44.757812 -26.371094 44.757812 -29.636719 C 44.757812 -36.652344 39.074219 -42.339844 32.054688 -42.339844 L 10.828125 -42.339844 L 10.828125 -33.871094 L 32.054688 -33.871094 C 34.414062 -33.871094 36.289062 -31.996094 36.289062 -29.636719 C 36.289062 -27.277344 34.414062 -25.402344 32.054688 -25.402344 L 15.0625 -25.402344 L 15.0625 -16.9375 L 32.054688 -16.9375 C 34.414062 -16.9375 36.289062 -15.0625 36.289062 -12.703125 Z M 15.0625 0 L 36.289062 0 L 36.289062 -8.46875 L 15.0625 -8.46875 C 12.761719 -8.46875 10.828125 -10.34375 10.828125 -12.703125 L 10.828125 -33.871094 L 2.417969 -33.871094 L 2.417969 -12.703125 C 2.417969 -5.746094 8.105469 0 15.0625 0 Z M 15.0625 0 "/></g></g></g><g fill="#dc3c4d" fill-opacity="1"><g transform="translate(189.308681, 51.864051)"><g><path d="M 15.121094 -12.703125 L 32.054688 -12.703125 L 32.054688 -21.167969 L 15.121094 -21.167969 C 12.761719 -21.167969 10.886719 -23.042969 10.886719 -25.402344 L 10.886719 -42.339844 L 2.417969 -42.339844 L 2.417969 -25.402344 C 2.417969 -18.386719 8.105469 -12.703125 15.121094 -12.703125 Z M 6.652344 0 L 32.054688 0 C 39.074219 0 44.757812 -5.683594 44.757812 -12.703125 L 44.757812 -42.339844 L 36.289062 -42.339844 L 36.289062 -12.703125 C 36.289062 -10.34375 34.414062 -8.46875 32.054688 -8.46875 L 6.652344 -8.46875 Z M 6.652344 0 "/></g></g></g><g fill="#dc3c4d" fill-opacity="1"><g transform="translate(236.480353, 51.864051)"><g/></g></g><g fill="#ff00ff" fill-opacity="1"><g transform="translate(263.765355, 50.355991)"><g><path d="M 2.417969 -8.46875 L 10.886719 -8.46875 L 10.886719 -29.636719 C 10.886719 -31.996094 12.761719 -33.871094 15.121094 -33.871094 L 36.289062 -33.871094 L 36.289062 -42.339844 L 15.121094 -42.339844 C 8.105469 -42.339844 2.417969 -36.652344 2.417969 -29.636719 Z M 36.289062 -25.402344 L 44.757812 -25.402344 L 44.757812 -33.871094 L 36.289062 -33.871094 Z M 10.886719 0 L 44.757812 0 L 44.757812 -12.703125 L 36.289062 -12.703125 L 36.289062 -8.46875 L 10.886719 -8.46875 Z M 10.886719 0 "/></g></g></g><g fill="#ff00ff" fill-opacity="1"><g transform="translate(310.937027, 50.355991)"><g><path d="M 36.289062 0 L 44.757812 0 L 44.757812 -29.636719 C 44.757812 -36.652344 39.011719 -42.339844 31.996094 -42.339844 L 10.828125 -42.339844 L 10.828125 -33.871094 L 31.996094 -33.871094 C 34.355469 -33.871094 36.289062 -31.996094 36.289062 -29.636719 Z M 2.417969 0 L 10.828125 0 L 10.828125 -12.703125 L 32.054688 -12.703125 L 32.054688 -21.167969 L 10.828125 -21.167969 L 10.828125 -33.871094 L 2.417969 -33.871094 Z M 2.417969 0 "/></g></g></g><g fill="#ff00ff" fill-opacity="1"><g transform="translate(358.1087, 50.355991)"><g><path d="M 36.289062 -29.636719 L 44.757812 -29.636719 C 44.757812 -36.652344 39.074219 -42.339844 32.054688 -42.339844 L 10.886719 -42.339844 L 10.886719 -33.871094 L 32.054688 -33.871094 C 34.414062 -33.871094 36.289062 -31.996094 36.289062 -29.636719 Z M 36.289062 -8.46875 L 44.757812 -8.46875 L 44.757812 -12.703125 C 44.757812 -19.71875 39.074219 -25.402344 32.054688 -25.402344 L 15.121094 -25.402344 C 12.824219 -25.402344 10.886719 -27.277344 10.886719 -29.636719 L 10.886719 -33.871094 L 2.417969 -33.871094 L 2.417969 -29.636719 C 2.417969 -22.679688 8.164062 -16.9375 15.121094 -16.9375 L 32.054688 -16.9375 C 34.414062 -16.9375 36.289062 -15.0625 36.289062 -12.703125 Z M 15.121094 0 L 36.289062 0 L 36.289062 -8.46875 L 15.121094 -8.46875 C 12.824219 -8.46875 10.886719 -10.34375 10.886719 -12.703125 L 2.417969 -12.703125 C 2.417969 -5.746094 8.164062 0 15.121094 0 Z M 15.121094 0 "/></g></g></g><g fill="#ff00ff" fill-opacity="1"><g transform="translate(405.280373, 50.355991)"><g><path d="M 2.417969 -21.167969 L 10.828125 -21.167969 L 10.828125 -42.339844 L 2.417969 -42.339844 Z M 36.351562 0 L 44.757812 0 L 44.757812 -42.339844 L 36.351562 -42.339844 Z M 2.417969 0 L 10.886719 0 L 10.886719 -8.46875 C 10.886719 -10.828125 12.761719 -12.703125 15.121094 -12.703125 L 32.054688 -12.703125 L 32.054688 -21.167969 L 15.121094 -21.167969 C 8.105469 -21.167969 2.417969 -15.484375 2.417969 -8.46875 Z M 2.417969 0 "/></g></g></g><g fill="#00ffff" fill-opacity="1"><g transform="translate(257.58139, 53.372112)"><g><path d="M 2.417969 -8.46875 L 10.886719 -8.46875 L 10.886719 -29.636719 C 10.886719 -31.996094 12.761719 -33.871094 15.121094 -33.871094 L 36.289062 -33.871094 L 36.289062 -42.339844 L 15.121094 -42.339844 C 8.105469 -42.339844 2.417969 -36.652344 2.417969 -29.636719 Z M 36.289062 -25.402344 L 44.757812 -25.402344 L 44.757812 -33.871094 L 36.289062 -33.871094 Z M 10.886719 0 L 44.757812 0 L 44.757812 -12.703125 L 36.289062 -12.703125 L 36.289062 -8.46875 L 10.886719 -8.46875 Z M 10.886719 0 "/></g></g></g><g fill="#00ffff" fill-opacity="1"><g transform="translate(304.753062, 53.372112)"><g><path d="M 36.289062 0 L 44.757812 0 L 44.757812 -29.636719 C 44.757812 -36.652344 39.011719 -42.339844 31.996094 -42.339844 L 10.828125 -42.339844 L 10.828125 -33.871094 L 31.996094 -33.871094 C 34.355469 -33.871094 36.289062 -31.996094 36.289062 -29.636719 Z M 2.417969 0 L 10.828125 0 L 10.828125 -12.703125 L 32.054688 -12.703125 L 32.054688 -21.167969 L 10.828125 -21.167969 L 10.828125 -33.871094 L 2.417969 -33.871094 Z M 2.417969 0 "/></g></g></g><g fill="#00ffff" fill-opacity="1"><g transform="translate(351.924735, 53.372112)"><g><path d="M 36.289062 -29.636719 L 44.757812 -29.636719 C 44.757812 -36.652344 39.074219 -42.339844 32.054688 -42.339844 L 10.886719 -42.339844 L 10.886719 -33.871094 L 32.054688 -33.871094 C 34.414062 -33.871094 36.289062 -31.996094 36.289062 -29.636719 Z M 36.289062 -8.46875 L 44.757812 -8.46875 L 44.757812 -12.703125 C 44.757812 -19.71875 39.074219 -25.402344 32.054688 -25.402344 L 15.121094 -25.402344 C 12.824219 -25.402344 10.886719 -27.277344 10.886719 -29.636719 L 10.886719 -33.871094 L 2.417969 -33.871094 L 2.417969 -29.636719 C 2.417969 -22.679688 8.164062 -16.9375 15.121094 -16.9375 L 32.054688 -16.9375 C 34.414062 -16.9375 36.289062 -15.0625 36.289062 -12.703125 Z M 15.121094 0 L 36.289062 0 L 36.289062 -8.46875 L 15.121094 -8.46875 C 12.824219 -8.46875 10.886719 -10.34375 10.886719 -12.703125 L 2.417969 -12.703125 C 2.417969 -5.746094 8.164062 0 15.121094 0 Z M 15.121094 0 "/></g></g></g><g fill="#00ffff" fill-opacity="1"><g transform="translate(399.096408, 53.372112)"><g><path d="M 2.417969 -21.167969 L 10.828125 -21.167969 L 10.828125 -42.339844 L 2.417969 -42.339844 Z M 36.351562 0 L 44.757812 0 L 44.757812 -42.339844 L 36.351562 -42.339844 Z M 2.417969 0 L 10.886719 0 L 10.886719 -8.46875 C 10.886719 -10.828125 12.761719 -12.703125 15.121094 -12.703125 L 32.054688 -12.703125 L 32.054688 -21.167969 L 15.121094 -21.167969 C 8.105469 -21.167969 2.417969 -15.484375 2.417969 -8.46875 Z M 2.417969 0 "/></g></g></g><g fill="#dc3c4d" fill-opacity="1"><g transform="translate(260.673372, 51.864051)"><g><path d="M 2.417969 -8.46875 L 10.886719 -8.46875 L 10.886719 -29.636719 C 10.886719 -31.996094 12.761719 -33.871094 15.121094 -33.871094 L 36.289062 -33.871094 L 36.289062 -42.339844 L 15.121094 -42.339844 C 8.105469 -42.339844 2.417969 -36.652344 2.417969 -29.636719 Z M 36.289062 -25.402344 L 44.757812 -25.402344 L 44.757812 -33.871094 L 36.289062 -33.871094 Z M 10.886719 0 L 44.757812 0 L 44.757812 -12.703125 L 36.289062 -12.703125 L 36.289062 -8.46875 L 10.886719 -8.46875 Z M 10.886719 0 "/></g></g></g><g fill="#dc3c4d" fill-opacity="1"><g transform="translate(307.845045, 51.864051)"><g><path d="M 36.289062 0 L 44.757812 0 L 44.757812 -29.636719 C 44.757812 -36.652344 39.011719 -42.339844 31.996094 -42.339844 L 10.828125 -42.339844 L 10.828125 -33.871094 L 31.996094 -33.871094 C 34.355469 -33.871094 36.289062 -31.996094 36.289062 -29.636719 Z M 2.417969 0 L 10.828125 0 L 10.828125 -12.703125 L 32.054688 -12.703125 L 32.054688 -21.167969 L 10.828125 -21.167969 L 10.828125 -33.871094 L 2.417969 -33.871094 Z M 2.417969 0 "/></g></g></g><g fill="#dc3c4d" fill-opacity="1"><g transform="translate(355.016718, 51.864051)"><g><path d="M 36.289062 -29.636719 L 44.757812 -29.636719 C 44.757812 -36.652344 39.074219 -42.339844 32.054688 -42.339844 L 10.886719 -42.339844 L 10.886719 -33.871094 L 32.054688 -33.871094 C 34.414062 -33.871094 36.289062 -31.996094 36.289062 -29.636719 Z M 36.289062 -8.46875 L 44.757812 -8.46875 L 44.757812 -12.703125 C 44.757812 -19.71875 39.074219 -25.402344 32.054688 -25.402344 L 15.121094 -25.402344 C 12.824219 -25.402344 10.886719 -27.277344 10.886719 -29.636719 L 10.886719 -33.871094 L 2.417969 -33.871094 L 2.417969 -29.636719 C 2.417969 -22.679688 8.164062 -16.9375 15.121094 -16.9375 L 32.054688 -16.9375 C 34.414062 -16.9375 36.289062 -15.0625 36.289062 -12.703125 Z M 15.121094 0 L 36.289062 0 L 36.289062 -8.46875 L 15.121094 -8.46875 C 12.824219 -8.46875 10.886719 -10.34375 10.886719 -12.703125 L 2.417969 -12.703125 C 2.417969 -5.746094 8.164062 0 15.121094 0 Z M 15.121094 0 "/></g></g></g><g fill="#dc3c4d" fill-opacity="1"><g transform="translate(402.18839, 51.864051)"><g><path d="M 2.417969 -21.167969 L 10.828125 -21.167969 L 10.828125 -42.339844 L 2.417969 -42.339844 Z M 36.351562 0 L 44.757812 0 L 44.757812 -42.339844 L 36.351562 -42.339844 Z M 2.417969 0 L 10.886719 0 L 10.886719 -8.46875 C 10.886719 -10.828125 12.761719 -12.703125 15.121094 -12.703125 L 32.054688 -12.703125 L 32.054688 -21.167969 L 15.121094 -21.167969 C 8.105469 -21.167969 2.417969 -15.484375 2.417969 -8.46875 Z M 2.417969 0 "/></g></g></g></svg>