<svg xmlns="http://www.w3.org/2000/svg" xmlns:xlink="http://www.w3.org/1999/xlink" width="400" zoomAndPan="magnify" viewBox="0 0 300 299.999988" height="400" preserveAspectRatio="xMidYMid meet" version="1.0"><defs><g/></defs><g fill="#ff00ff" fill-opacity="1"><g transform="translate(16.81914, 218.285658)"><g><path d="M 109.621094 -25.578125 L 135.199219 -25.578125 L 135.199219 -38.367188 C 135.199219 -48.234375 131.363281 -57.1875 125.335938 -63.945312 C 131.363281 -70.707031 135.199219 -79.660156 135.199219 -89.523438 C 135.199219 -110.71875 118.027344 -127.894531 96.832031 -127.894531 L 32.703125 -127.894531 L 32.703125 -102.3125 L 96.832031 -102.3125 C 103.957031 -102.3125 109.621094 -96.648438 109.621094 -89.523438 C 109.621094 -82.398438 103.957031 -76.734375 96.832031 -76.734375 L 45.492188 -76.734375 L 45.492188 -51.15625 L 96.832031 -51.15625 C 103.957031 -51.15625 109.621094 -45.492188 109.621094 -38.367188 Z M 45.492188 0 L 109.621094 0 L 109.621094 -25.578125 L 45.492188 -25.578125 C 38.550781 -25.578125 32.703125 -31.242188 32.703125 -38.367188 L 32.703125 -102.3125 L 7.308594 -102.3125 L 7.308594 -38.367188 C 7.308594 -17.355469 24.480469 0 45.492188 0 Z M 45.492188 0 "/></g></g></g><g fill="#00ffff" fill-opacity="1"><g transform="translate(-1.860696, 227.396429)"><g><path d="M 109.621094 -25.578125 L 135.199219 -25.578125 L 135.199219 -38.367188 C 135.199219 -48.234375 131.363281 -57.1875 125.335938 -63.945312 C 131.363281 -70.707031 135.199219 -79.660156 135.199219 -89.523438 C 135.199219 -110.71875 118.027344 -127.894531 96.832031 -127.894531 L 32.703125 -127.894531 L 32.703125 -102.3125 L 96.832031 -102.3125 C 103.957031 -102.3125 109.621094 -96.648438 109.621094 -89.523438 C 109.621094 -82.398438 103.957031 -76.734375 96.832031 -76.734375 L 45.492188 -76.734375 L 45.492188 -51.15625 L 96.832031 -51.15625 C 103.957031 -51.15625 109.621094 -45.492188 109.621094 -38.367188 Z M 45.492188 0 L 109.621094 0 L 109.621094 -25.578125 L 45.492188 -25.578125 C 38.550781 -25.578125 32.703125 -31.242188 32.703125 -38.367188 L 32.703125 -102.3125 L 7.308594 -102.3125 L 7.308594 -38.367188 C 7.308594 -17.355469 24.480469 0 45.492188 0 Z M 45.492188 0 "/></g></g></g><g fill="#dc3c4d" fill-opacity="1"><g transform="translate(7.479222, 222.841045)"><g><path d="M 109.621094 -25.578125 L 135.199219 -25.578125 L 135.199219 -38.367188 C 135.199219 -48.234375 131.363281 -57.1875 125.335938 -63.945312 C 131.363281 -70.707031 135.199219 -79.660156 135.199219 -89.523438 C 135.199219 -110.71875 118.027344 -127.894531 96.832031 -127.894531 L 32.703125 -127.894531 L 32.703125 -102.3125 L 96.832031 -102.3125 C 103.957031 -102.3125 109.621094 -96.648438 109.621094 -89.523438 C 109.621094 -82.398438 103.957031 -76.734375 96.832031 -76.734375 L 45.492188 -76.734375 L 45.492188 -51.15625 L 96.832031 -51.15625 C 103.957031 -51.15625 109.621094 -45.492188 109.621094 -38.367188 Z M 45.492188 0 L 109.621094 0 L 109.621094 -25.578125 L 45.492188 -25.578125 C 38.550781 -25.578125 32.703125 -31.242188 32.703125 -38.367188 L 32.703125 -102.3125 L 7.308594 -102.3125 L 7.308594 -38.367188 C 7.308594 -17.355469 24.480469 0 45.492188 0 Z M 45.492188 0 "/></g></g></g><g fill="#ff00ff" fill-opacity="1"><g transform="translate(159.321685, 218.285658)"><g><path d="M 7.308594 -25.578125 L 32.886719 -25.578125 L 32.886719 -89.523438 C 32.886719 -96.648438 38.550781 -102.3125 45.675781 -102.3125 L 109.621094 -102.3125 L 109.621094 -127.894531 L 45.675781 -127.894531 C 24.480469 -127.894531 7.308594 -110.71875 7.308594 -89.523438 Z M 109.621094 -76.734375 L 135.199219 -76.734375 L 135.199219 -102.3125 L 109.621094 -102.3125 Z M 32.886719 0 L 135.199219 0 L 135.199219 -38.367188 L 109.621094 -38.367188 L 109.621094 -25.578125 L 32.886719 -25.578125 Z M 32.886719 0 "/></g></g></g><g fill="#00ffff" fill-opacity="1"><g transform="translate(140.641849, 227.396429)"><g><path d="M 7.308594 -25.578125 L 32.886719 -25.578125 L 32.886719 -89.523438 C 32.886719 -96.648438 38.550781 -102.3125 45.675781 -102.3125 L 109.621094 -102.3125 L 109.621094 -127.894531 L 45.675781 -127.894531 C 24.480469 -127.894531 7.308594 -110.71875 7.308594 -89.523438 Z M 109.621094 -76.734375 L 135.199219 -76.734375 L 135.199219 -102.3125 L 109.621094 -102.3125 Z M 32.886719 0 L 135.199219 0 L 135.199219 -38.367188 L 109.621094 -38.367188 L 109.621094 -25.578125 L 32.886719 -25.578125 Z M 32.886719 0 "/></g></g></g><g fill="#dc3c4d" fill-opacity="1"><g transform="translate(149.981767, 222.841045)"><g><path d="M 7.308594 -25.578125 L 32.886719 -25.578125 L 32.886719 -89.523438 C 32.886719 -96.648438 38.550781 -102.3125 45.675781 -102.3125 L 109.621094 -102.3125 L 109.621094 -127.894531 L 45.675781 -127.894531 C 24.480469 -127.894531 7.308594 -110.71875 7.308594 -89.523438 Z M 109.621094 -76.734375 L 135.199219 -76.734375 L 135.199219 -102.3125 L 109.621094 -102.3125 Z M 32.886719 0 L 135.199219 0 L 135.199219 -38.367188 L 109.621094 -38.367188 L 109.621094 -25.578125 L 32.886719 -25.578125 Z M 32.886719 0 "/></g></g></g></svg>